name Run_20002_GRF.mot
datacolumns 19
datarows 28
range 1.947 1.974
endheader
time	     ground_force_vx	     ground_force_vy	     ground_force_vz	     ground_force_px	     ground_force_py	     ground_force_pz	   l_ground_force_vx	   l_ground_force_vy	   l_ground_force_vz	   l_ground_force_px	   l_ground_force_py	   l_ground_force_pz	     ground_torque_x	     ground_torque_y	     ground_torque_z	   l_ground_torque_x	   l_ground_torque_y	   l_ground_torque_z	
1.947	         81.02016400	       1179.72314500	         -1.70411800	          0.89743000	          0.00000000	         -0.31689100	          0.00000000	          0.00000000	          0.00000000	          0.00000000	          0.00000000	          0.00000000	          0.00000000	         -2.84905300	          0.00000000	          0.00000000	          0.00000000	          0.00000000	
1.948	         82.68137400	       1167.38977100	         -0.97295300	          0.89608500	          0.00000000	         -0.31704700	          0.00000000	          0.00000000	          0.00000000	          0.00000000	          0.00000000	          0.00000000	          0.00000000	         -2.93015400	          0.00000000	          0.00000000	          0.00000000	          0.00000000	
1.949	         84.28539300	       1154.95703100	         -0.25345800	          0.89474100	          0.00000000	         -0.31720500	          0.00000000	          0.00000000	          0.00000000	          0.00000000	          0.00000000	          0.00000000	          0.00000000	         -3.00761600	          0.00000000	          0.00000000	          0.00000000	          0.00000000	
1.95	         85.83376300	       1142.43127400	          0.45303500	          0.89339600	          0.00000000	         -0.31736300	          0.00000000	          0.00000000	          0.00000000	          0.00000000	          0.00000000	          0.00000000	          0.00000000	         -3.08127100	          0.00000000	          0.00000000	          0.00000000	          0.00000000	
1.951	         87.32804900	       1129.81860400	          1.14519800	          0.89205100	          0.00000000	         -0.31752300	          0.00000000	          0.00000000	          0.00000000	          0.00000000	          0.00000000	          0.00000000	          0.00000000	         -3.15096400	          0.00000000	          0.00000000	          0.00000000	          0.00000000	
1.952	         88.76979800	       1117.12475600	          1.82171400	          0.89070300	          0.00000000	         -0.31768300	          0.00000000	          0.00000000	          0.00000000	          0.00000000	          0.00000000	          0.00000000	          0.00000000	         -3.21654900	          0.00000000	          0.00000000	          0.00000000	          0.00000000	
1.953	         90.16049200	       1104.35534700	          2.48129100	          0.88935400	          0.00000000	         -0.31784400	          0.00000000	          0.00000000	          0.00000000	          0.00000000	          0.00000000	          0.00000000	          0.00000000	         -3.27789200	          0.00000000	          0.00000000	          0.00000000	          0.00000000	
1.954	         91.50154900	       1091.51550300	          3.12266800	          0.88800200	          0.00000000	         -0.31800700	          0.00000000	          0.00000000	          0.00000000	          0.00000000	          0.00000000	          0.00000000	          0.00000000	         -3.33486900	          0.00000000	          0.00000000	          0.00000000	          0.00000000	
1.955	         92.79431900	       1078.61010700	          3.74463200	          0.88664500	          0.00000000	         -0.31817000	          0.00000000	          0.00000000	          0.00000000	          0.00000000	          0.00000000	          0.00000000	          0.00000000	         -3.38737100	          0.00000000	          0.00000000	          0.00000000	          0.00000000	
1.956	         94.04010000	       1065.64379900	          4.34602700	          0.88528400	          0.00000000	         -0.31833500	          0.00000000	          0.00000000	          0.00000000	          0.00000000	          0.00000000	          0.00000000	          0.00000000	         -3.43530100	          0.00000000	          0.00000000	          0.00000000	          0.00000000	
1.957	         95.24013500	       1052.62109400	          4.92576800	          0.88391900	          0.00000000	         -0.31850100	          0.00000000	          0.00000000	          0.00000000	          0.00000000	          0.00000000	          0.00000000	          0.00000000	         -3.47857100	          0.00000000	          0.00000000	          0.00000000	          0.00000000	
1.958	         96.39563000	       1039.54626500	          5.48284900	          0.88254700	          0.00000000	         -0.31866800	          0.00000000	          0.00000000	          0.00000000	          0.00000000	          0.00000000	          0.00000000	          0.00000000	         -3.51711100	          0.00000000	          0.00000000	          0.00000000	          0.00000000	
1.959	         97.50777400	       1026.42321800	          6.01635600	          0.88116900	          0.00000000	         -0.31883600	          0.00000000	          0.00000000	          0.00000000	          0.00000000	          0.00000000	          0.00000000	          0.00000000	         -3.55086100	          0.00000000	          0.00000000	          0.00000000	          0.00000000	
1.96	         98.57771300	       1013.25622600	          6.52547300	          0.87978500	          0.00000000	         -0.31900600	          0.00000000	          0.00000000	          0.00000000	          0.00000000	          0.00000000	          0.00000000	          0.00000000	         -3.57977300	          0.00000000	          0.00000000	          0.00000000	          0.00000000	
1.961	         99.60656000	       1000.04913300	          7.00949700	          0.87839400	          0.00000000	         -0.31917700	          0.00000000	          0.00000000	          0.00000000	          0.00000000	          0.00000000	          0.00000000	          0.00000000	         -3.60381500	          0.00000000	          0.00000000	          0.00000000	          0.00000000	
1.962	        100.59536000	        986.80596900	          7.46784100	          0.87699500	          0.00000000	         -0.31934900	          0.00000000	          0.00000000	          0.00000000	          0.00000000	          0.00000000	          0.00000000	          0.00000000	         -3.62296700	          0.00000000	          0.00000000	          0.00000000	          0.00000000	
1.963	        101.54505200	        973.53057900	          7.90003900	          0.87558900	          0.00000000	         -0.31952200	          0.00000000	          0.00000000	          0.00000000	          0.00000000	          0.00000000	          0.00000000	          0.00000000	         -3.63722200	          0.00000000	          0.00000000	          0.00000000	          0.00000000	
1.964	        102.45642100	        960.22699000	          8.30575400	          0.87417600	          0.00000000	         -0.31969700	          0.00000000	          0.00000000	          0.00000000	          0.00000000	          0.00000000	          0.00000000	          0.00000000	         -3.64658500	          0.00000000	          0.00000000	          0.00000000	          0.00000000	
1.965	        103.33002500	        946.89910900	          8.68477900	          0.87275500	          0.00000000	         -0.31987200	          0.00000000	          0.00000000	          0.00000000	          0.00000000	          0.00000000	          0.00000000	          0.00000000	         -3.65107700	          0.00000000	          0.00000000	          0.00000000	          0.00000000	
1.966	        104.16618300	        933.55090300	          9.03704100	          0.87132700	          0.00000000	         -0.32004800	          0.00000000	          0.00000000	          0.00000000	          0.00000000	          0.00000000	          0.00000000	          0.00000000	         -3.65072700	          0.00000000	          0.00000000	          0.00000000	          0.00000000	
1.967	        104.96487400	        920.18646200	          9.36259800	          0.86989300	          0.00000000	         -0.32022400	          0.00000000	          0.00000000	          0.00000000	          0.00000000	          0.00000000	          0.00000000	          0.00000000	         -3.64558100	          0.00000000	          0.00000000	          0.00000000	          0.00000000	
1.968	        105.72570800	        906.80975300	          9.66164000	          0.86845300	          0.00000000	         -0.32040100	          0.00000000	          0.00000000	          0.00000000	          0.00000000	          0.00000000	          0.00000000	          0.00000000	         -3.63569600	          0.00000000	          0.00000000	          0.00000000	          0.00000000	
1.969	        106.44789900	        893.42492700	          9.93448400	          0.86700800	          0.00000000	         -0.32057700	          0.00000000	          0.00000000	          0.00000000	          0.00000000	          0.00000000	          0.00000000	          0.00000000	         -3.62113900	          0.00000000	          0.00000000	          0.00000000	          0.00000000	
1.97	        107.13021900	        880.03619400	         10.18156900	          0.86555800	          0.00000000	         -0.32075300	          0.00000000	          0.00000000	          0.00000000	          0.00000000	          0.00000000	          0.00000000	          0.00000000	         -3.60199000	          0.00000000	          0.00000000	          0.00000000	          0.00000000	
1.971	        107.77103400	        866.64788800	         10.40345500	          0.86410500	          0.00000000	         -0.32092900	          0.00000000	          0.00000000	          0.00000000	          0.00000000	          0.00000000	          0.00000000	          0.00000000	         -3.57834200	          0.00000000	          0.00000000	          0.00000000	          0.00000000	
1.972	        108.36829400	        853.26446500	         10.60080600	          0.86265000	          0.00000000	         -0.32110300	          0.00000000	          0.00000000	          0.00000000	          0.00000000	          0.00000000	          0.00000000	          0.00000000	         -3.55029500	          0.00000000	          0.00000000	          0.00000000	          0.00000000	
1.973	        108.91958600	        839.89056400	         10.77439000	          0.86119300	          0.00000000	         -0.32127700	          0.00000000	          0.00000000	          0.00000000	          0.00000000	          0.00000000	          0.00000000	          0.00000000	         -3.51796300	          0.00000000	          0.00000000	          0.00000000	          0.00000000	
1.974	        109.42219500	        826.53112800	         10.92506600	          0.85973500	          0.00000000	         -0.32144800	          0.00000000	          0.00000000	          0.00000000	          0.00000000	          0.00000000	          0.00000000	          0.00000000	         -3.48146700	          0.00000000	          0.00000000	          0.00000000	          0.00000000	
